<svg width="25" height="26" viewBox="0 0 25 26" fill="none" xmlns="http://www.w3.org/2000/svg">
<path fill-rule="evenodd" clip-rule="evenodd" d="M15.9318 16.0559L20 20.1241L19.3241 20.8L15.2558 16.7318C12.8148 18.8277 9.1325 18.7193 6.81981 16.4067C4.3934 13.9802 4.3934 10.0463 6.81981 7.61985C9.24621 5.19345 13.1802 5.19345 15.6066 7.61985C17.9193 9.93255 18.0277 13.6148 15.9318 16.0559ZM14.9307 15.7307C16.9838 13.6776 16.9838 10.3489 14.9307 8.29576C12.8776 6.24265 9.54883 6.24265 7.49571 8.29576C5.4426 10.3489 5.4426 13.6776 7.49571 15.7307C9.54883 17.7839 12.8776 17.7839 14.9307 15.7307Z" fill="#C8A985"/>
</svg>
